# xmcd
#
# Track frame offsets:
#   150
#   12080
#   27358
#   45524
#   53837
#   62987
#   77833
#   90006
#   101963
#   116998
#   132033
#   145718
#   159997
#   178028
#   193657
#   208071
#
# Disc length: 2972 seconds
#
# Revision: 0
# Processed by: cddbd v1.5PL3 Copyright (c) Steve Scherf et al.
# Submitted via: Media_Universe 3.0
#
DISCID=d50b9a10
DTITLE=arquivo sertanejo - sertanejo
DYEAR=1999
DGENRE=sertaneja
TTITLE0=terra tombada
TTITLE1=devolva a passagem
TTITLE2=vai e vem do carreiro
TTITLE3=1hghfghf
TTITLE4=2hghgf
TTITLE5=6hgfhhf
TTITLE6=9hgfhgfh
TTITLE7=9hghfg
TTITLE8=9hghghh
TTITLE9=9hgf
TTITLE10=9+gfhgfh
TTITLE11=9ghhhgh
TTITLE12=88gfhgfh
TTITLE13=8ggffgfg
TTITLE14=8ghgf
TTITLE15=hfghgh7
EXTD=gfd
EXTT0=
EXTT1=
EXTT2=
EXTT3=
EXTT4=
EXTT5=
EXTT6=
EXTT7=
EXTT8=
EXTT9=
EXTT10=
EXTT11=
EXTT12=
EXTT13=
EXTT14=
EXTT15=
PLAYORDER=
